<svg class="" width="75" height="32" viewBox="0 0 75 32" fill="none" xmlns="http://www.w3.org/2000/svg"><path d="M26.3964 9.71155H33.6993V11.1429H27.8786V15.4661H33.1352V16.877H27.8786V22.3526H26.3964V9.71155Z" fill="currentColor"></path><path d="M35.2426 9.71155H36.7427V22.3437H35.2426V9.71155Z" fill="currentColor"></path><path d="M39.2933 21.6739C38.7228 21.0389 38.4376 20.1505 38.4376 19.0087V13.3472H39.9364V18.7808C39.9364 19.6407 40.1308 20.2702 40.5196 20.6692C40.9084 21.0682 41.4313 21.2682 42.0884 21.269C42.569 21.2767 43.0401 21.1352 43.4369 20.8641C43.829 20.5961 44.1449 20.2311 44.3538 19.8046C44.5706 19.3782 44.6827 18.9064 44.681 18.428V13.3472H46.1811V22.345H44.7511V21.0449H44.681C44.4002 21.5247 43.9903 21.916 43.4981 22.1744C42.9718 22.4762 42.3754 22.6343 41.7688 22.6328C40.6906 22.6286 39.8655 22.3089 39.2933 21.6739Z" fill="currentColor"></path><path d="M50.5783 22.4457C50.2865 22.3388 50.0193 22.1742 49.7926 21.9618C49.5611 21.7397 49.3808 21.4698 49.2641 21.171C49.1372 20.8198 49.0772 20.4479 49.0871 20.0746V14.7059H47.517V13.3472H49.0871V10.8068H50.5859V13.3472H52.7736V14.7059H50.5859V19.7193C50.5859 20.2287 50.6802 20.5967 50.8686 20.8373C51.0919 21.1022 51.4153 21.2346 51.839 21.2346C52.1904 21.2315 52.5335 21.1272 52.8271 20.9341V22.3985C52.6553 22.4788 52.4744 22.5382 52.2885 22.5755C52.0583 22.614 51.8252 22.6315 51.5919 22.6277C51.2457 22.6297 50.9021 22.568 50.5783 22.4457Z" fill="currentColor"></path><path d="M56.7771 22.4457C56.4859 22.3385 56.2192 22.1739 55.9927 21.9618C55.7609 21.7397 55.5801 21.4699 55.463 21.171C55.3366 20.8197 55.277 20.4478 55.2873 20.0746V14.7059H53.7172V13.3472H55.2873V10.8068H56.7861V13.3472H58.9738V14.7059H56.7861V19.7193C56.7861 20.2287 56.8803 20.5967 57.0675 20.8373C57.2916 21.1022 57.6155 21.2346 58.0391 21.2346C58.3901 21.2316 58.7328 21.1273 59.026 20.9341V22.3985C58.8546 22.4789 58.6742 22.5384 58.4886 22.5755C58.2581 22.614 58.0245 22.6315 57.7908 22.6277C57.4446 22.6293 57.1011 22.5676 56.7771 22.4457Z" fill="currentColor"></path><path d="M61.8492 22.0088C61.1703 21.5995 60.618 21.0103 60.2536 20.3063C59.8633 19.5512 59.666 18.7113 59.6793 17.8614C59.6708 17.0309 59.8547 16.2098 60.2167 15.4623C60.5589 14.7529 61.087 14.1496 61.7447 13.7165C62.4267 13.2756 63.2249 13.0485 64.0369 13.0645C64.8408 13.0443 65.6345 13.2485 66.329 13.6541C66.9731 14.0439 67.4913 14.6111 67.8214 15.2878C68.1792 16.0303 68.3576 16.8464 68.3422 17.6704C68.3448 17.8249 68.3268 17.979 68.2887 18.1288H61.1793C61.1934 18.7382 61.364 19.3337 61.6747 19.8581C61.9441 20.3065 62.3312 20.6725 62.794 20.9163C63.2313 21.1482 63.7189 21.2693 64.2139 21.269C65.3667 21.269 66.2547 20.7282 66.8778 19.6467L68.1512 20.2643C67.7858 20.9697 67.2413 21.5665 66.5722 21.9948C65.9075 22.4193 65.1048 22.6315 64.1642 22.6315C63.3498 22.6422 62.5483 22.4266 61.8492 22.0088ZM66.753 16.8923C66.7242 16.4982 66.6159 16.114 66.4347 15.7628C66.2304 15.3697 65.922 15.0402 65.5433 14.8103C65.0819 14.5366 64.5513 14.4018 64.0152 14.4219C63.3524 14.4055 62.7096 14.6497 62.2248 15.1019C61.722 15.5812 61.3852 16.2084 61.2634 16.8923H66.753Z" fill="currentColor"></path><path d="M69.3125 13.3471H70.7425V14.7937H70.8125C71.0039 14.2793 71.3627 13.8442 71.8313 13.5585C72.2999 13.2399 72.8525 13.0675 73.4192 13.0631C73.7816 13.0544 74.1419 13.1208 74.4774 13.258V14.8637C74.0809 14.6714 73.6446 14.575 73.204 14.5823C72.7757 14.5804 72.3571 14.7098 72.0044 14.9529C71.6373 15.2085 71.3397 15.5516 71.1385 15.9512C70.9212 16.3691 70.8093 16.8338 70.8125 17.3048V22.345H69.3137V13.3471H69.3125Z" fill="currentColor"></path><path d="M17.4838 14.9911L11.6567 20.8195L17.4838 26.6478H10.8239L8.3255 24.1494L4.99555 20.8195L10.8239 14.9911H17.4838ZM10.8239 5L0 15.8239L3.33122 19.1551L17.4838 5H10.8239Z" fill="currentColor"></path></svg>