<svg class="" width="32" height="32" viewBox="0 0 32 32" fill="none" xmlns="http://www.w3.org/2000/svg"><path fill-rule="evenodd" clip-rule="evenodd" d="M14.7312 3.38751C18.4062 1.05001 23.4875 2.13751 26.0562 5.81876C27.2875 7.54376 27.7687 9.69376 27.4062 11.7813C27.2312 12.7688 26.85 13.7063 26.3 14.5438C27.1062 16.075 27.375 17.8375 27.0687 19.5438C26.7 21.5938 25.4875 23.3938 23.725 24.5L17.275 28.6125C13.6 30.95 8.52496 29.8625 5.94996 26.1813C4.71246 24.4563 4.23121 22.3063 4.59996 20.2188C4.77496 19.2375 5.15621 18.2938 5.70621 17.4563C4.89996 15.925 4.63121 14.1625 4.93746 12.4563C5.30621 10.4063 6.51871 8.60626 8.28121 7.50001L14.7312 3.38751ZM8.59997 24.4937C9.82497 26.2562 12.0187 27.0687 14.1 26.5312C14.5625 26.4062 15.0062 26.2125 15.4125 25.9562L21.8625 21.8437C22.925 21.175 23.6562 20.0937 23.875 18.8625C24.0937 17.6062 23.8062 16.3125 23.0625 15.275C21.8375 13.5125 19.6437 12.7 17.5625 13.2375C17.0937 13.3625 16.6562 13.5562 16.25 13.8125L13.7937 15.3812C13.675 15.4625 13.5375 15.5187 13.4 15.5562C12.775 15.7187 12.1125 15.475 11.7437 14.9437C11.5187 14.6312 11.4312 14.2437 11.5 13.8625C11.5687 13.4875 11.7875 13.1625 12.1062 12.9625L18.5562 8.84999C18.675 8.76874 18.8125 8.71249 18.95 8.67499C19.575 8.51249 20.2375 8.75624 20.6062 9.28749C20.8062 9.56249 20.9 9.90624 20.8687 10.2437L20.8437 10.4812L21.0812 10.5562C21.9875 10.8312 22.8437 11.2562 23.6062 11.8187L23.9375 12.0625L24.0562 11.6937C24.125 11.5 24.175 11.3 24.2125 11.0937C24.4312 9.83749 24.1437 8.54374 23.4 7.50624C22.175 5.74374 19.9812 4.93124 17.9 5.46874C17.4312 5.59374 16.9937 5.78749 16.5875 6.04374L10.1375 10.1562C9.07497 10.825 8.34372 11.9062 8.12497 13.1375C7.90622 14.3937 8.19372 15.6875 8.93747 16.725C10.1625 18.4875 12.3562 19.3 14.4375 18.7625C14.9062 18.6375 15.3437 18.4437 15.75 18.1875L18.2062 16.6187C18.325 16.5375 18.4625 16.4812 18.6 16.4437C19.225 16.2812 19.8875 16.525 20.2562 17.0562C20.4812 17.3687 20.5687 17.7562 20.5 18.1375C20.4312 18.5125 20.2125 18.8375 19.8937 19.0375L13.4437 23.15C13.325 23.2312 13.1875 23.2875 13.05 23.325C12.425 23.4875 11.7625 23.2437 11.3937 22.7125C11.1937 22.4375 11.1 22.0937 11.1312 21.7562L11.1562 21.5187L10.9187 21.4437C10.0125 21.1687 9.15622 20.7437 8.39372 20.1812L8.06247 19.9375L7.94372 20.3062C7.87497 20.5 7.82497 20.7 7.78747 20.9062C7.56872 22.1625 7.85622 23.4562 8.59997 24.4937Z" fill="currentColor"></path></svg>